<svg xmlns="http://www.w3.org/2000/svg" version="1.1" xmlns:xlink="http://www.w3.org/1999/xlink" xmlns:svgjs="http://svgjs.dev/svgjs" width="1000" height="171" viewBox="0 0 1000 171"><g transform="matrix(1,0,0,1,-0.606060381346424,0.02434619707753427)"><svg viewBox="0 0 396 68" data-background-color="#ffffff" preserveAspectRatio="xMidYMid meet" height="171" width="1000" xmlns="http://www.w3.org/2000/svg" xmlns:xlink="http://www.w3.org/1999/xlink"><g id="tight-bounds" transform="matrix(1,0,0,1,0.2400000889867897,-0.00968152866241212)"><svg viewBox="0 0 395.52 68.01936305732484" height="68.01936305732484" width="395.52"><g><svg viewBox="0 0 395.52 68.01936305732484" height="68.01936305732484" width="395.52"><g><svg viewBox="0 0 395.52 68.01936305732484" height="68.01936305732484" width="395.52"><g id="textblocktransform"><svg viewBox="0 0 395.52 68.01936305732484" height="68.01936305732484" width="395.52" id="textblock"><g><svg viewBox="0 0 395.52 68.01936305732484" height="68.01936305732484" width="395.52"><g transform="matrix(1,0,0,1,0,0)"><svg width="395.52" viewBox="2.9000000953674316 -34.75 211.94000244140625 36.45000076293945" height="68.01936305732484" data-palette-color="#ea3c12"><path d="M14.7 1.2Q11.15 1.2 9.03 1.03 6.9 0.85 5.65 0.4L5.65 0.4Q4.35-0.15 3.75-1.1 3.15-2.05 3.15-3.65L3.15-3.65 3.15-4.9Q3.2-5.4 3.2-6.4L3.2-6.4Q3.25-6.9 3.25-7.9L3.25-7.9Q3.3-8.4 3.3-8.95L3.3-8.95Q3.3-10.85 3.2-14.65L3.2-14.65 3.15-17.65Q2.9-21.2 2.9-26.25L2.9-26.25 2.9-27.95 2.9-29.5Q2.9-31.25 3.05-32.05L3.05-32.05Q3.15-32.3 3.18-32.5 3.2-32.7 3.2-32.8L3.2-32.8Q3.25-33.7 3.95-34.15L3.95-34.15Q4.35-34.3 5.05-34.3L5.05-34.3Q5.5-34.3 6.03-34.35 6.55-34.4 7.15-34.4L7.15-34.4Q7.95-34.4 9.65-34.5L9.65-34.5Q10.1-34.55 10.73-34.6 11.35-34.65 12.15-34.65L12.15-34.65Q13.75-34.75 14.4-34.75L14.4-34.75Q18.5-34.75 24-33.95L24-33.95Q27.85-33.5 30-33L30-33Q33.65-32.1 35.55-30.65L35.55-30.65Q38-28.55 38-25.3L38-25.3Q38-21.1 34.55-18.95L34.55-18.95Q34.3-18.8 34.1-18.73 33.9-18.65 33.7-18.55L33.7-18.55Q32.8-18.3 32.15-17.9L32.15-17.9Q32.05-17.85 31.9-17.73 31.75-17.6 31.65-17.4L31.65-17.4Q31.65-17.4 31.68-17.38 31.7-17.35 31.7-17.3L31.7-17.3Q31.7-17.3 31.8-17.2L31.8-17.2Q35.25-15.8 37.4-13.75L37.4-13.75Q39-11.95 39-10L39-10Q39-7.25 35.65-4.45L35.65-4.45Q32.35-1.85 27.5-0.5L27.5-0.5Q23.9 0.5 20.4 0.9L20.4 0.9Q17.75 1.2 14.7 1.2L14.7 1.2ZM20.65-22.15Q20.9-22.15 21.2-22.3L21.2-22.3Q22.5-22.75 23.65-23.4L23.65-23.4Q24.35-23.7 25.03-24.03 25.7-24.35 25.95-24.45L25.95-24.45 26.4-24.65 26.8-24.75Q27-24.75 27-25L27-25Q27-25.85 25.15-26.15L25.15-26.15Q24.05-26.4 22.4-26.4L22.4-26.4Q20.9-26.4 20.5-25.25L20.5-25.25Q20.25-24.65 20.25-23.75 20.25-22.85 20.25-22.65L20.25-22.65 20.25-22.4Q20.25-22.15 20.65-22.15L20.65-22.15ZM19.8-7.7L19.9-7.7Q19.9-7.7 19.93-7.7 19.95-7.7 19.95-7.75L19.95-7.75Q23.45-9.45 27.9-11.45L27.9-11.45Q28.1-11.65 28.15-11.65L28.15-11.65 28.4-11.8Q26.3-12.45 24.25-12.65L24.25-12.65Q21.65-12.75 19.95-12.75L19.95-12.75Q19.4-12.75 19.4-12.05L19.4-12.05 19.4-8.05Q19.4-7.7 19.8-7.7L19.8-7.7ZM70.75 1.7Q70.55 1.7 70.4 1.65L70.4 1.65Q69.65 1.2 69.15 0.65L69.15 0.65Q69 0.4 68.95 0.4L68.95 0.4Q68.9 0.3 68.8 0.3L68.8 0.3 68.7 0.25Q68.5 0.05 68.5 0.05L68.5 0.05 64.25-6.25Q63.95-6.9 63.4-7.65L63.4-7.65Q63.05-8 62.8-8.4L62.8-8.4Q62.6-8.7 62.4-8.7L62.4-8.7Q62.25-8.7 62.17-8.55 62.1-8.4 62.05-8.15L62.05-8.15Q61.9-6.8 61.9-4.5L61.9-4.5Q61.9-2.3 61.65-0.95L61.65-0.95Q61.5-0.3 61.2-0.3L61.2-0.3 60.9-0.3Q60.8-0.35 60.72-0.38 60.65-0.4 60.65-0.4L60.65-0.4Q58.9-0.25 55.4-0.05L55.4-0.05Q52 0.15 50.2 0.15L50.2 0.15Q49.7 0.15 49.4 0.05L49.4 0.05 48.3 0.05 47.4 0.05 46.95 0.05 45.15-0.55 45-0.95Q45-1 44.97-1.15 44.95-1.3 44.95-1.55L44.95-1.55Q44.95-1.85 44.85-2.65L44.85-2.65Q44.6-5.7 44.65-5.05L44.65-5.05Q44.55-6.35 44.3-9.55L44.3-9.55 44.15-11.4Q44.15-12.3 44.1-13 44.05-13.7 44-14.2L44-14.2 43.9-15.3Q43.75-17.35 43.75-19.15L43.75-19.15Q43.75-19.2 43.77-19.3 43.8-19.4 43.8-19.7L43.8-19.7Q43.9-20 43.9-20.65L43.9-20.65 43.95-21.55 44-22.15Q44-23.2 43.9-25.2L43.9-25.2Q43.7-26.45 43.7-28.4L43.7-28.4Q43.7-31.2 44.05-32.5L44.05-32.5Q44.5-34.3 45.55-34.3L45.55-34.3Q51.2-34.3 57.05-34.15L57.05-34.15Q58.35-34.15 60.95-34.05L60.95-34.05 62.9-34Q66.9-33.9 68.45-33.9L68.45-33.9Q74.9-33.6 78.2-30.65L78.2-30.65Q79.7-29.4 80.42-27.65 81.15-25.9 81.15-23.9L81.15-23.9Q81.15-21.6 80.3-19.65L80.3-19.65Q79.6-18.1 78.3-16.8L78.3-16.8Q77.05-15.55 75.45-14.8L75.45-14.8Q75.75-14.65 76.25-14.15L76.25-14.15Q76.45-13.9 76.95-13.5L76.95-13.5 77.65-13Q77.8-12.75 78-12.53 78.2-12.3 78.4-12.05L78.4-12.05 80.75-9.15Q82.35-7.1 82.8-6.15L82.8-6.15Q83.15-5.5 83.15-5.15L83.15-5.15Q83.15-4.65 82.75-4.25 82.35-3.85 81.55-3.25L81.55-3.25Q80.95-2.8 80.15-2.4L80.15-2.4Q79.4-2 79-1.65L79-1.65 77.15-0.65Q76.15-0.1 75 0.3L75 0.3Q74.95 0.3 74.87 0.35 74.8 0.4 74.65 0.45L74.65 0.45Q74.35 0.6 73 1L73 1Q72.75 1.15 72.15 1.25L72.15 1.25Q72 1.35 71.8 1.4 71.6 1.45 71.5 1.45L71.5 1.45 71.25 1.45Q71.2 1.7 71.05 1.7L71.05 1.7 70.9 1.7 70.75 1.7ZM61.8-15.95L62.55-15.95Q64.1-15.95 65-17.5L65-17.5Q65.85-18.9 65.95-20.7L65.95-20.7Q66.05-21.75 66.05-23.2L66.05-23.2 66.05-23.75Q66.05-24.9 65.65-26.15L65.65-26.15Q65.25-27.75 64-28.45L64-28.45Q63.45-28.9 62.55-28.9L62.55-28.9Q62.3-28.9 62.15-28.3L62.15-28.3Q61.7-27.2 61.65-24.8L61.65-24.8Q61.45-23.8 61.45-22.45L61.45-22.45 61.4-20.95Q61.3-18.05 61.3-16.15L61.3-16.15Q61.3-16.1 61.35-16.05 61.4-16 61.45-16L61.45-16 61.8-15.95ZM88.3 0.05Q87.65 0.05 87.4-0.95L87.4-0.95Q87.35-1.1 87.35-1.45L87.35-1.45Q87.35-1.95 87.55-2.95L87.55-2.95Q87.65-3.6 87.72-3.98 87.8-4.35 87.85-4.55L87.85-4.55Q89.35-11.6 90.8-16.95L90.8-16.95 94.3-32.75Q94.3-32.85 94.45-33.05 94.6-33.25 94.8-33.3L94.8-33.3 95.05-33.3Q95.05-33.25 95.2-33.25L95.2-33.25Q95.8-33.25 96.55-33.4L96.55-33.4Q97.3-33.55 97.9-33.55L97.9-33.55Q99-33.55 99.95-33.4L99.95-33.4Q100.4-33.4 100.95-33.35 101.5-33.3 102.1-33.3L102.1-33.3Q102.3-33.3 102.55-33.4L102.55-33.4 103.45-33.4 104.6-33.4 105.8-33.45Q106.15-33.5 106.65-33.5L106.65-33.5Q107.05-33.5 107.05-33.55L107.05-33.55 107.85-33.55 109.55-33.55 111.65-33.55Q114.45-33.55 115.35-33.45L115.35-33.45Q115.5-33.45 115.77-33.43 116.05-33.4 116.1-33.3L116.1-33.3Q116.45-33.3 116.8-33.35 117.15-33.4 117.45-33.4L117.45-33.4Q118.15-33.55 118.8-33.55L118.8-33.55Q119.1-33.55 119.4-33.4L119.4-33.4Q119.7-33.25 120.05-33.25L120.05-33.25 120.3-33.3 120.45-33.3Q120.6-33.2 120.77-33.02 120.95-32.85 120.95-32.75L120.95-32.75 124.45-16.95Q126.05-11.1 127.35-4.55L127.35-4.55Q127.35-4.25 127.55-3.9L127.55-3.9Q127.6-3.55 127.7-2.95 127.8-2.35 127.8-1.95L127.8-1.95Q127.85-1.75 127.85-1.4L127.85-1.4Q127.85-0.7 127.55-0.25L127.55-0.25Q127.35 0.05 126.95 0.05L126.95 0.05 126.3 0.05Q125.55 0.05 125.15 0L125.15 0 123.85 0 122.6 0 121.6 0Q121.2 0 121.2-0.05L121.2-0.05 118.05-0.05 118.05-0.15Q117.85-0.25 117.55-0.25L117.55-0.25Q117.55-0.25 117.52-0.23 117.5-0.2 117.45-0.15L117.45-0.15Q117.45-0.05 117.35-0.05L117.35-0.05 117.2-0.05 116.8-0.05Q116.55-0.15 115.8-0.15L115.8-0.15Q114.3-0.25 113.45-0.25L113.45-0.25Q113.15-0.7 112.82-2.05 112.5-3.4 112.15-5.05L112.15-5.05Q112.05-5.85 111.95-6.15L111.95-6.15Q110.9-5.95 109.2-5.95L109.2-5.95 107.65-5.95 106.2-5.95 105.85-4.35Q105.2-1.05 104.8-0.25L104.8-0.25Q104.6-0.25 104.3-0.15L104.3-0.15Q104.2-0.1 104.12-0.08 104.05-0.05 104.05-0.05L104.05-0.05 103.85-0.05Q103.55-0.05 103.4-0.15L103.4-0.15Q103.3-0.25 103.15-0.25L103.15-0.25 100.9-0.15 100.1-0.15 99.35-0.15Q99.15-0.05 98.85-0.05L98.85-0.05 98.65-0.05 94.05-0.05 93.6-0.05Q93.05 0 91.35 0L91.35 0 90.05 0Q89.65 0.05 88.9 0.05L88.9 0.05 88.3 0.05ZM111.4-12.2Q111.05-14.65 111.05-14.65L111.05-14.65Q110.9-15.35 110.55-17.3L110.55-17.3Q110.45-17.8 110.05-20L110.05-20Q109.65-22.4 109.65-22.4L109.65-22.4Q109.5-23.4 109.35-24.15L109.35-24.15 109.3-24.8Q109.15-25.05 109.15-25.25L109.15-25.25 109.1-25.55Q109.05-25.45 109.05-25.25L109.05-25.25Q109.05-25.05 108.95-25L108.95-25 108.95-24.8 108.85-24.15Q108.8-23.8 108.72-23.38 108.65-22.95 108.55-22.45L108.55-22.45 108.3-21.05Q107.75-17.9 107.65-17.4L107.65-17.4Q107.6-16.85 107.4-15.75L107.4-15.75Q107.3-15.4 107.2-14.7L107.2-14.7 106.8-12.4 109.35-12.4 109.7-12.5 109.8-12.5Q110.4-12.5 110.7-12.4L110.7-12.4Q110.9-12.4 111.07-12.33 111.25-12.25 111.4-12.2L111.4-12.2ZM139.84 0.15Q139.34 0.15 138.99 0.05L138.99 0.05 137.99 0.05 137.19 0.05 136.74 0.05 134.49-0.5 134.34-0.9Q134.29-0.9 134.29-1.45L134.29-1.45Q134.19-2.95 134.19-4.9L134.19-4.9Q134.19-6.3 134.09-7.15L134.09-7.15Q134.09-8.55 134.04-9.25L134.04-9.25 134.04-11Q133.79-13.3 133.74-16.05 133.69-18.8 133.69-21.4L133.69-21.4 133.79-26.5Q133.84-27.35 133.84-29.1L133.84-29.1Q133.84-30.85 133.79-31.7L133.79-31.7Q133.64-32.85 134.44-33.4L134.44-33.4Q134.94-33.65 136.19-33.65L136.19-33.65Q138.04-33.65 140.94-33.75L140.94-33.75 142.04-33.85Q145.04-34.05 145.79-34.05L145.79-34.05Q146.49-34.05 146.79-34L146.79-34Q147.49-33.95 147.74-33.8 147.99-33.65 148.22-33.3 148.44-32.95 148.54-32.75L148.54-32.75Q149.14-31.95 149.74-31.05L149.74-31.05Q150.64-29.7 151.19-28.95L151.19-28.95 154.49-23.9 156.09-21.5Q156.09-22.8 156.19-23.55L156.19-23.55 156.19-28.2 156.34-31.75Q156.39-32.15 156.44-32.3 156.49-32.45 156.59-32.52 156.69-32.6 156.74-32.65L156.74-32.65Q157.34-33.15 157.94-33.4L157.94-33.4Q158.44-33.5 158.74-33.5L158.74-33.5 161.59-33.5 162.19-33.5Q162.59-33.45 163.59-33.45L163.59-33.45Q164.69-33.45 165.34-33.4L165.34-33.4 167.04-33.4 168.44-33.4 169.04-33.4Q170.34-33.4 170.79-33L170.79-33Q171.34-32.6 171.34-31.25L171.34-31.25 171.29-30.75 171.24-29.95Q171.19-29.65 171.19-29.15L171.19-29.15 171.19-28.55 171.19-28.15 171.29-27.65 171.29-26.05Q171.24-25.2 171.24-23.15L171.24-23.15 171.24-19.45Q171.19-18.15 171.19-15.8L171.19-15.8 171.19-12.9 171.19-11.2 171.19-3.3 170.99-1.4Q170.79-0.25 170.19 0L170.19 0 169.34 0.05 168.49 0 166.24 0 163.29 0 160.24 0 159.49 0Q158.49 0.1 157.54-0.25L157.54-0.25Q157.09-0.45 156.54-0.9L156.54-0.9 151.44-8.05Q151.44-8.1 150.34-9.9L150.34-9.9Q149.94-10.5 149.59-10.95L149.59-10.95Q149.49-11.15 149.37-11.28 149.24-11.4 149.19-11.4L149.19-11.4Q148.74-11.4 148.74-11L148.74-11 148.74-9.9Q148.69-9.4 148.69-8.25L148.69-8.25 148.69-6.3 148.69-4.4Q148.59-3.8 148.59-2.9L148.59-2.9 148.59-1.9 148.59-1.15 148.64-0.9Q148.64-0.5 148.24-0.4L148.24-0.4Q147.99-0.2 147.44-0.3L147.44-0.3Q145.74-0.2 144.74-0.1L144.74-0.1Q144.14-0.05 142.64 0.05 141.14 0.15 139.84 0.15L139.84 0.15ZM192.94 0.05L186.34 0 178.69-0.05Q177.84-0.05 177.59-1.15L177.59-1.15Q177.34-1.85 177.34-3.15L177.34-3.15Q177.34-7.5 177.24-10.9L177.24-10.9Q177.09-15.8 177.09-21.25L177.09-21.25 177.09-32.25Q177.09-32.7 177.52-33.13 177.94-33.55 178.39-33.55L178.39-33.55 184.19-33.5Q185.84-33.45 188.34-33.45L188.34-33.45Q192.09-33.45 194.19-33.5L194.19-33.5 196.04-33.55Q199.14-33.65 200.94-33.65L200.94-33.65Q204.04-33.65 206.94-32.45L206.94-32.45Q210.34-31.15 212.39-28L212.39-28Q214.84-24.2 214.84-18.65L214.84-18.65Q214.84-13.4 213.67-9.9 212.49-6.4 209.94-4.15L209.94-4.15Q207.39-1.95 203.27-0.95 199.14 0.05 192.94 0.05L192.94 0.05ZM193.34-6.65Q193.54-6.6 193.89-6.6L193.89-6.6Q194.29-6.6 194.99-6.7L194.99-6.7Q195.24-6.75 195.37-6.83 195.49-6.9 195.59-6.95L195.59-6.95Q196.19-7.65 196.74-9.9L196.74-9.9Q197.09-11.3 197.59-14.7L197.59-14.7Q197.84-17.6 197.84-19.7L197.84-19.7 197.84-20.65Q197.84-21.95 197.59-24.55L197.59-24.55Q197.24-27.15 196.59-28.2L196.59-28.2Q196.04-28.9 195.59-28.9L195.59-28.9Q195.14-28.9 194.79-28.8 194.44-28.7 194.34-28.65L194.34-28.65Q194.24-28.6 193.89-28.4L193.89-28.4 193.84-22.4Q193.84-21.6 193.74-20L193.74-20 193.69-18.8Q193.59-16.3 193.59-15.2L193.59-15.2 193.34-6.65Z" opacity="1" transform="matrix(1,0,0,1,0,0)" fill="#ea3c12" class="wordmark-text-0" data-fill-palette-color="primary" id="text-0"></path></svg></g></svg></g></svg></g></svg></g></svg></g><defs></defs></svg><rect width="395.52" height="68.01936305732484" fill="none" stroke="none" visibility="hidden"></rect></g></svg></g></svg>