<?xml version="1.0" standalone="no"?>
<!DOCTYPE svg PUBLIC "-//W3C//DTD SVG 20010904//EN"
 "http://www.w3.org/TR/2001/REC-SVG-20010904/DTD/svg10.dtd">
<svg version="1.0" xmlns="http://www.w3.org/2000/svg"
 width="1667.000000pt" height="1667.000000pt" viewBox="0 0 1667.000000 1667.000000"
 preserveAspectRatio="xMidYMid meet">

<g transform="translate(0.000000,1667.000000) scale(0.100000,-0.100000)"
fill="#000000" stroke="none">
<path d="M1965 16663 c-567 -37 -1089 -295 -1451 -716 -306 -356 -474 -774
-504 -1252 -8 -118 -10 -2090 -8 -6480 3 -5983 5 -6316 21 -6419 79 -482 281
-875 619 -1201 270 -262 568 -429 925 -521 274 -70 -320 -65 6818 -62 l6450 3
110 22 c460 93 823 287 1130 604 298 308 468 641 562 1099 16 80 17 460 21
6535 2 4570 0 6478 -8 6545 -69 606 -409 1162 -916 1498 -260 172 -520 272
-854 329 -100 17 -406 18 -6485 19 -3509 0 -6402 -1 -6430 -3z m6035 -3803 c0
-297 3 -540 6 -540 3 0 30 20 61 45 76 62 175 119 253 146 50 17 95 23 195 27
203 6 316 -29 409 -128 55 -59 82 -111 107 -207 18 -74 19 -123 19 -1410 l0
-1333 -280 0 -280 0 -2 1223 c-3 1199 -3 1223 -23 1262 -50 100 -225 106 -407
14 l-58 -29 0 -1235 0 -1235 -280 0 -280 0 0 1970 0 1970 280 0 280 0 0 -540z
m-1363 501 c247 -51 406 -200 469 -441 15 -56 18 -130 21 -512 l4 -448 -295 0
-296 0 0 368 c0 237 -4 381 -11 407 -15 52 -66 99 -123 114 -56 14 -189 14
-239 0 -50 -13 -103 -61 -119 -107 -10 -27 -13 -113 -13 -327 0 -330 5 -358
76 -439 22 -25 190 -154 372 -288 183 -133 361 -266 397 -296 123 -103 185
-190 228 -317 l26 -80 4 -486 c3 -451 2 -492 -17 -582 -51 -250 -200 -410
-441 -473 -51 -13 -127 -18 -355 -21 -264 -4 -299 -3 -390 16 -251 51 -399
190 -467 436 -21 77 -22 102 -26 583 l-3 502 290 0 291 0 0 -410 c0 -260 4
-428 11 -460 23 -107 96 -150 253 -150 111 0 156 12 201 51 59 52 65 90 65
435 0 321 -6 381 -45 450 -36 61 -81 98 -462 377 -455 333 -515 396 -575 602
-22 78 -23 90 -23 520 0 387 2 449 18 516 37 159 120 286 234 361 147 98 240
116 588 117 219 1 275 -2 352 -18z m-1933 -845 c160 -46 284 -144 349 -272 73
-145 70 -117 74 -831 l4 -643 -506 0 -505 0 0 -343 c0 -192 4 -357 10 -376 11
-40 43 -77 84 -98 40 -21 160 -28 229 -14 125 27 147 78 147 343 l0 178 271 0
271 0 -5 -272 c-5 -302 -10 -335 -74 -462 -74 -148 -218 -247 -407 -281 -129
-23 -569 -17 -660 10 -208 59 -343 196 -403 406 -17 60 -18 129 -18 1124 0
1185 -4 1107 72 1258 77 154 236 259 438 290 17 3 152 4 300 2 219 -2 281 -6
329 -19z m5841 0 c228 -63 369 -212 416 -439 18 -87 19 -150 19 -1092 0 -942
-1 -1005 -19 -1092 -48 -229 -189 -378 -421 -440 -96 -26 -644 -26 -740 0
-232 62 -373 211 -421 440 -18 87 -19 150 -19 1092 0 942 1 1005 19 1092 21
101 70 205 129 274 70 82 198 148 337 175 106 20 618 13 700 -10z m1990 9
c188 -49 308 -178 349 -378 23 -110 24 -2214 1 -2321 -42 -196 -168 -333 -350
-381 -86 -22 -244 -20 -340 5 -103 26 -170 58 -266 125 -43 30 -81 55 -84 55
-3 0 -5 -175 -5 -390 l0 -390 -280 0 -280 0 0 1830 0 1830 280 0 280 0 0 -101
0 -101 41 37 c104 94 234 159 374 189 52 10 225 5 280 -9z m-5965 -5805 l855
-1710 1422 0 1423 0 580 1160 580 1160 540 0 c353 0 540 -3 540 -10 0 -5 -359
-728 -797 -1605 l-798 -1595 -2065 0 -2065 0 -895 1790 -895 1790 -652 0 -653
0 0 365 0 365 1013 0 1012 0 855 -1710z m3804 -3101 c182 -56 345 -224 402
-414 27 -89 25 -249 -3 -340 -60 -189 -205 -340 -393 -406 -54 -19 -86 -23
-185 -23 -104 0 -130 3 -192 26 -189 68 -330 218 -389 414 -27 87 -25 248 3
339 68 217 265 391 483 425 75 12 200 2 274 -21z m-2912 -20 c196 -65 357
-238 403 -430 19 -84 19 -225 -1 -303 -67 -260 -318 -456 -584 -456 -256 0
-489 174 -576 430 -27 78 -27 282 0 360 72 214 244 371 456 416 86 18 221 10
302 -17z"/>
<path d="M4210 12018 c-33 -17 -51 -35 -67 -68 -22 -43 -23 -52 -23 -372 l0
-328 230 0 230 0 0 308 c0 316 -5 367 -37 411 -43 56 -67 65 -181 69 -96 3
-112 1 -152 -20z"/>
<path d="M10035 12018 c-42 -15 -82 -55 -97 -97 -10 -28 -13 -233 -13 -936 0
-970 -1 -947 53 -997 40 -37 84 -48 196 -48 159 0 217 38 236 155 13 80 13
1700 0 1780 -12 73 -32 103 -90 133 -38 19 -59 22 -150 21 -58 0 -118 -5 -135
-11z"/>
<path d="M12020 12012 c-36 -9 -90 -31 -120 -48 l-55 -31 -3 -938 c-2 -741 1
-941 10 -953 22 -27 152 -81 220 -92 76 -12 159 0 198 28 14 10 34 36 45 58
20 38 20 59 20 954 0 905 0 915 -21 954 -12 24 -35 47 -58 59 -53 28 -154 32
-236 9z"/>
</g>
</svg>
